<svg width="890" height="184" viewBox="0 0 890 184" fill="none" xmlns="http://www.w3.org/2000/svg">
<rect width="184" height="184" rx="12" fill="black"/>
<path d="M68.345 138V44.56H79.865V127.504H122.105V138H68.345Z" fill="white"/>
<path d="M222.551 138V44.56H246.743C252.802 44.56 258.007 45.712 262.359 48.016C266.796 50.32 270.21 53.5627 272.599 57.744C275.074 61.9253 276.311 66.8747 276.311 72.592V109.84C276.311 115.557 275.074 120.549 272.599 124.816C270.21 128.997 266.796 132.24 262.359 134.544C258.007 136.848 252.802 138 246.743 138H222.551ZM234.071 127.76H246.743C252.375 127.76 256.77 126.181 259.927 123.024C263.17 119.867 264.791 115.472 264.791 109.84V72.592C264.791 67.0453 263.17 62.6933 259.927 59.536C256.77 56.3787 252.375 54.8 246.743 54.8H234.071V127.76ZM344.997 139.28C336.89 139.28 330.405 136.891 325.541 132.112C320.677 127.248 318.245 120.677 318.245 112.4V67.6H329.765V112.4C329.765 117.691 331.13 121.829 333.861 124.816C336.592 127.717 340.304 129.168 344.997 129.168C349.776 129.168 353.53 127.717 356.261 124.816C359.077 121.829 360.485 117.691 360.485 112.4V67.6H372.005V112.4C372.005 120.677 369.53 127.248 364.581 132.112C359.632 136.891 353.104 139.28 344.997 139.28ZM445.171 139.28C439.368 139.28 434.718 137.744 431.219 134.672C427.72 131.515 425.971 127.248 425.971 121.872L428.275 124.56H425.971V138H414.451V44.56H425.971V65.04L425.715 81.04H428.275L425.971 83.728C425.971 78.4373 427.72 74.2133 431.219 71.056C434.803 67.8987 439.454 66.32 445.171 66.32C452.254 66.32 457.928 68.6667 462.195 73.36C466.462 78.0533 468.595 84.4533 468.595 92.56V113.168C468.595 121.189 466.462 127.547 462.195 132.24C457.928 136.933 452.254 139.28 445.171 139.28ZM441.331 129.296C446.195 129.296 450.035 127.845 452.851 124.944C455.667 122.043 457.075 117.861 457.075 112.4V93.2C457.075 87.7387 455.667 83.5573 452.851 80.656C450.035 77.7547 446.195 76.304 441.331 76.304C436.638 76.304 432.883 77.7973 430.067 80.784C427.336 83.7707 425.971 87.9093 425.971 93.2V112.4C425.971 117.691 427.336 121.829 430.067 124.816C432.883 127.803 436.638 129.296 441.331 129.296ZM509.505 138V127.504H534.465V78.096H512.705V67.6H545.985V127.504H569.665V138H509.505ZM538.945 54.928C536.129 54.928 533.91 54.2027 532.289 52.752C530.668 51.3013 529.857 49.3387 529.857 46.864C529.857 44.304 530.668 42.2987 532.289 40.848C533.91 39.312 536.129 38.544 538.945 38.544C541.761 38.544 543.98 39.312 545.601 40.848C547.222 42.2987 548.033 44.304 548.033 46.864C548.033 49.3387 547.222 51.3013 545.601 52.752C543.98 54.2027 541.761 54.928 538.945 54.928ZM606.351 138V67.6H617.871V81.04H620.303L617.871 83.728C617.871 78.1813 619.535 73.9147 622.863 70.928C626.191 67.856 630.799 66.32 636.687 66.32C643.77 66.32 649.402 68.496 653.583 72.848C657.764 77.2 659.855 83.1307 659.855 90.64V138H648.335V91.92C648.335 86.8853 646.97 83.0453 644.239 80.4C641.594 77.6693 637.967 76.304 633.359 76.304C628.58 76.304 624.783 77.7547 621.967 80.656C619.236 83.5573 617.871 87.7387 617.871 93.2V138H606.351ZM701.405 138V127.504H726.365V78.096H704.605V67.6H737.885V127.504H761.565V138H701.405ZM730.845 54.928C728.029 54.928 725.81 54.2027 724.189 52.752C722.568 51.3013 721.757 49.3387 721.757 46.864C721.757 44.304 722.568 42.2987 724.189 40.848C725.81 39.312 728.029 38.544 730.845 38.544C733.661 38.544 735.88 39.312 737.501 40.848C739.122 42.2987 739.933 44.304 739.933 46.864C739.933 49.3387 739.122 51.3013 737.501 52.752C735.88 54.2027 733.661 54.928 730.845 54.928ZM798.251 138V67.6H809.771V81.04H812.203L809.771 83.728C809.771 78.1813 811.435 73.9147 814.763 70.928C818.091 67.856 822.699 66.32 828.587 66.32C835.67 66.32 841.302 68.496 845.483 72.848C849.664 77.2 851.755 83.1307 851.755 90.64V138H840.235V91.92C840.235 86.8853 838.87 83.0453 836.139 80.4C833.494 77.6693 829.867 76.304 825.259 76.304C820.48 76.304 816.683 77.7547 813.867 80.656C811.136 83.5573 809.771 87.7387 809.771 93.2V138H798.251Z" fill="black"/>
</svg>
